# xmcd
#
# Track frame offsets: 
#        150
#        14473
#        26056
#        37402
#        47933
#        58916
#        70088
#        80753
#        92933
#        104483
#        116260
#        127730
#        138161
#        149249
#        159922
#        170341
#        185007
#        198815
#        212071
#        224905
#        240001
#        253184
#        268520
#        279848
#        292161
#        305678
#        328447
#        341191
#
# Disc length: 4694 seconds
#
# Revision: 0
# Processed by: cddbd v1.5.2PL0 Copyright (c) Steve Scherf et al.
# Submitted via: ExactAudioCopyFreeDBPlugin 1.0
#
DISCID=c212541c
DTITLE=The 5 Royales - Catch That Teardrop
DYEAR=2007
DGENRE=R&B
TTITLE0=Show Me
TTITLE1=Not Going To Cry
TTITLE2=Catch That Teardrop
TTITLE3=What's In The Heart
TTITLE4=Take Me With You
TTITLE5=Please, Please, Please
TTITLE6=If You Don't Need Me
TTITLE7=Goof Ball
TTITLE8=She Did Me Wrong
TTITLE9=Much In Need
TTITLE10=I Got To Know
TTITLE11=They Don't Know
TTITLE12=I'm Gonna Tell Them
TTITLE13=I Wan't It Like That
TTITLE14=El Pauling and The Royalton - Solid Rock
TTITLE15=El Pauling and The Royalton - I'm A Cool Teenager (Undubbed ver
TTITLE15=sion)
TTITLE16=El Pauling - Everybody Knows
TTITLE17=El Pauling and The Royalton - Now Baby Don't Do It
TTITLE18=El Pauling and Royal Abbit - Please, Please Be Mine
TTITLE19=El Pauling and Royal Abbit - Rain Drops Keep A Fallin'
TTITLE20=El Pauling and Royal Abbit - Jail Bird
TTITLE21=El Pauling and Royal Abbit - Send Me Somebody
TTITLE22=El Pauling and Royal Abbit - Here It 'Tis Right Here
TTITLE23=El Pauling and Royal Abbit - Come On Let's Have A Good Time
TTITLE24=El Pauling and The Royalton - I'm A Cool Teenager
TTITLE25=El Pauling and The Exciters - Mr Moon Man Parts 1 and 2
TTITLE26=El Pauling and The Exciters - Time For Everything
TTITLE27=El Pauling and The Exciters - It Won't Be Long (issued as Soul 
TTITLE27=House)
EXTD=
EXTT0=
EXTT1=
EXTT2=
EXTT3=
EXTT4=
EXTT5=
EXTT6=
EXTT7=
EXTT8=
EXTT9=
EXTT10=
EXTT11=
EXTT12=
EXTT13=
EXTT14=
EXTT15=
EXTT16=
EXTT17=
EXTT18=
EXTT19=
EXTT20=
EXTT21=
EXTT22=
EXTT23=
EXTT24=
EXTT25=
EXTT26=
EXTT27=
PLAYORDER=
